<?xml version="1.0" encoding="UTF-8"?><svg xmlns="http://www.w3.org/2000/svg" viewBox="0 0 2551.36 2547.56"><g id="a"><rect x="28.76" y="46.14" width="2482.36" height="2482.36" rx="370.12" ry="370.12" style="stroke:#00ff04; stroke-miterlimit:10;"/></g><g id="b"><rect x="211.76" y="229.32" width="1029.21" height="1029.21" rx="319.77" ry="319.77" style="fill:#f60; stroke:#00ff04; stroke-miterlimit:10;"/></g><g id="c"><rect x="1299.91" y="203.71" width="1029.21" height="1029.21" rx="319.77" ry="319.77" style="fill:red; stroke:#00ff04; stroke-miterlimit:10;"/></g><g id="d"><rect x="1320.21" y="1326.32" width="1029.21" height="1029.21" rx="319.77" ry="319.77" style="fill:#0c0; stroke:#00ff04; stroke-miterlimit:10;"/></g><g id="e"><rect x="211.76" y="1326.32" width="1029.21" height="1029.21" rx="319.77" ry="319.77" style="fill:#30f; stroke:#00ff04; stroke-miterlimit:10;"/></g><g id="f"><rect x="255.13" y="271.01" width="2021.41" height="2021.41" rx="395.98" ry="395.98" transform="translate(1277.07 -519.67) rotate(45)" style="fill:#e900b0; stroke:#00ff04; stroke-miterlimit:10;"/></g><g id="g"><g><path d="M623.17,1407.78c0,39.75-10.24,75.46-30.7,107.13-20.47,31.68-50.43,56.48-89.87,74.41s-86.22,26.89-140.3,26.89c-64.85,0-118.34-12.25-160.47-36.76-29.89-17.63-54.17-41.16-72.84-70.6-18.68-29.43-28.02-58.05-28.02-85.84,0-16.14,5.6-29.96,16.81-41.46,11.21-11.5,25.47-17.26,42.81-17.26,14.04,0,25.92,4.48,35.64,13.45,9.71,8.96,18,22.26,24.88,39.89,8.36,20.92,17.4,38.4,27.12,52.44,9.71,14.05,23.38,25.63,41.01,34.74,17.63,9.12,40.79,13.67,69.48,13.67,39.45,0,71.49-9.19,96.15-27.57,24.65-18.38,36.98-41.31,36.98-68.8,0-21.81-6.65-39.52-19.95-53.12-13.3-13.59-30.48-23.98-51.55-31.15s-49.24-14.79-84.49-22.86c-47.22-11.05-86.73-23.98-118.56-38.77-31.83-14.79-57.08-34.96-75.75-60.51-18.68-25.55-28.02-57.3-28.02-95.25s9.86-68.28,29.58-96.37c19.72-28.08,48.26-49.68,85.61-64.77,37.35-15.09,81.28-22.64,131.78-22.64,40.34,0,75.23,5.01,104.66,15.02,29.43,10.02,53.86,23.31,73.29,39.89,19.42,16.58,33.62,34,42.58,52.22,8.96,18.23,13.45,36.01,13.45,53.34,0,15.84-5.6,30.11-16.81,42.81-11.21,12.71-25.18,19.05-41.91,19.05-15.24,0-26.82-3.81-34.74-11.43-7.92-7.62-16.52-20.09-25.77-37.43-11.96-24.8-26.3-44.15-43.03-58.05-16.74-13.9-43.63-20.84-80.68-20.84-34.37,0-62.08,7.55-83.15,22.64-21.07,15.09-31.6,33.25-31.6,54.46,0,13.15,3.59,24.51,10.76,34.07,7.17,9.57,17.03,17.78,29.58,24.65,12.55,6.88,25.25,12.26,38.1,16.14,12.84,3.89,34.07,9.57,63.65,17.03,37.05,8.67,70.6,18.23,100.63,28.69,30.03,10.46,55.58,23.16,76.65,38.1,21.07,14.95,37.5,33.84,49.31,56.7,11.8,22.86,17.71,50.88,17.71,84.04Z" style="fill:#fff;"/><path d="M1169.13,1050.53h-299.87v161.37h276.12c20.32,0,35.48,4.56,45.5,13.67,10.01,9.12,15.02,21.14,15.02,36.08s-4.93,27.12-14.79,36.53c-9.86,9.41-25.1,14.12-45.72,14.12h-276.12v186.92h310.18c20.91,0,36.68,4.86,47.29,14.57,10.6,9.71,15.91,22.64,15.91,38.77s-5.31,28.17-15.91,37.88c-10.61,9.71-26.38,14.57-47.29,14.57h-361.73c-28.99,0-49.83-6.42-62.53-19.27-12.71-12.84-19.05-33.62-19.05-62.31v-493.96c0-19.12,2.84-34.74,8.52-46.84,5.67-12.1,14.57-20.91,26.67-26.45,12.1-5.53,27.57-8.29,46.39-8.29h351.42c21.21,0,36.98,4.71,47.29,14.12s15.46,21.74,15.46,36.98-5.15,28.02-15.46,37.43-26.08,14.12-47.29,14.12Z" style="fill:#fff;"/><path d="M1847.77,1407.78c0,39.75-10.24,75.46-30.71,107.13-20.47,31.68-50.43,56.48-89.87,74.41s-86.22,26.89-140.3,26.89c-64.85,0-118.34-12.25-160.47-36.76-29.88-17.63-54.17-41.16-72.84-70.6-18.68-29.43-28.02-58.05-28.02-85.84,0-16.14,5.6-29.96,16.81-41.46,11.21-11.5,25.47-17.26,42.81-17.26,14.04,0,25.92,4.48,35.63,13.45,9.71,8.96,18,22.26,24.88,39.89,8.36,20.92,17.4,38.4,27.12,52.44,9.71,14.05,23.38,25.63,41.01,34.74,17.63,9.12,40.79,13.67,69.48,13.67,39.45,0,71.49-9.19,96.15-27.57,24.65-18.38,36.98-41.31,36.98-68.8,0-21.81-6.65-39.52-19.95-53.12-13.3-13.59-30.48-23.98-51.55-31.15-21.07-7.17-49.24-14.79-84.49-22.86-47.22-11.05-86.73-23.98-118.56-38.77-31.83-14.79-57.08-34.96-75.75-60.51-18.68-25.55-28.02-57.3-28.02-95.25s9.86-68.28,29.58-96.37c19.72-28.08,48.26-49.68,85.62-64.77,37.35-15.09,81.28-22.64,131.78-22.64,40.34,0,75.23,5.01,104.66,15.02,29.43,10.02,53.86,23.31,73.29,39.89,19.42,16.58,33.62,34,42.58,52.22,8.96,18.23,13.45,36.01,13.45,53.34,0,15.84-5.6,30.11-16.81,42.81-11.21,12.71-25.18,19.05-41.91,19.05-15.24,0-26.82-3.81-34.74-11.43-7.92-7.62-16.52-20.09-25.77-37.43-11.96-24.8-26.3-44.15-43.03-58.05-16.74-13.9-43.63-20.84-80.68-20.84-34.37,0-62.08,7.55-83.15,22.64-21.07,15.09-31.6,33.25-31.6,54.46,0,13.15,3.59,24.51,10.76,34.07,7.17,9.57,17.03,17.78,29.58,24.65,12.55,6.88,25.25,12.26,38.1,16.14,12.85,3.89,34.07,9.57,63.65,17.03,37.05,8.67,70.6,18.23,100.63,28.69,30.03,10.46,55.58,23.16,76.65,38.1,21.07,14.95,37.5,33.84,49.31,56.7,11.8,22.86,17.71,50.88,17.71,84.04Z" style="fill:#fff;"/><path d="M2215.77,1349.06h-121.92v186.02c0,26.6-6.28,46.77-18.83,60.51s-28.39,20.62-47.51,20.62-36.16-6.8-48.41-20.4c-12.26-13.59-18.38-33.54-18.38-59.84v-506.51c0-29.28,6.72-50.2,20.17-62.75s34.81-18.83,64.1-18.83h170.78c50.5,0,89.35,3.89,116.54,11.65,26.89,7.47,50.13,19.88,69.7,37.2,19.57,17.33,34.44,38.55,44.6,63.65,10.16,25.1,15.24,53.34,15.24,84.72,0,66.94-20.62,117.66-61.86,152.18-41.24,34.52-102.65,51.77-184.23,51.77Zm-32.27-301.22h-89.65v200.81h89.65c31.38,0,57.6-3.28,78.67-9.86,21.07-6.57,37.13-17.33,48.19-32.27,11.05-14.94,16.58-34.51,16.58-58.72,0-28.98-8.52-52.59-25.55-70.82-19.13-19.42-58.43-29.14-117.89-29.14Z" style="fill:#fff;"/></g></g></svg>